HIERARCHY
ROOT Hips
{
	OFFSET 0.00000 0.00000 0.00000
	CHANNELS 6 Xposition Yposition Zposition Zrotation Yrotation Xrotation 
	JOINT LHipJoint
	{
		OFFSET 0 0 0
		CHANNELS 3 Zrotation Yrotation Xrotation
		JOINT LeftUpLeg
		{
			OFFSET 1.41261 -1.82971 0.84908
			CHANNELS 3 Zrotation Yrotation Xrotation
			JOINT LeftLeg
			{
				OFFSET 2.52554 -6.93888 0.00000
				CHANNELS 3 Zrotation Yrotation Xrotation
				JOINT LeftFoot
				{
					OFFSET 2.56654 -7.05152 0.00000
					CHANNELS 3 Zrotation Yrotation Xrotation
					JOINT LeftToeBase
					{
						OFFSET 0.21698 -0.59616 1.85369
						CHANNELS 3 Zrotation Yrotation Xrotation
						End Site
						{
							OFFSET 0.00000 -0.00000 0.97832
						}
					}
				}
			}
		}
	}
	JOINT RHipJoint
	{
		OFFSET 0 0 0
		CHANNELS 3 Zrotation Yrotation Xrotation
		JOINT RightUpLeg
		{
			OFFSET -1.12808 -1.82971 0.84907
			CHANNELS 3 Zrotation Yrotation Xrotation
			JOINT RightLeg
			{
				OFFSET -2.53425 -6.96280 0.00000
				CHANNELS 3 Zrotation Yrotation Xrotation
				JOINT RightFoot
				{
					OFFSET -2.58413 -7.09983 0.00000
					CHANNELS 3 Zrotation Yrotation Xrotation
					JOINT RightToeBase
					{
						OFFSET -0.26437 -0.72636 1.92241
						CHANNELS 3 Zrotation Yrotation Xrotation
						End Site
						{
							OFFSET -0.00000 -0.00000 1.02667
						}
					}
				}
			}
		}
	}
	JOINT LowerBack
	{
		OFFSET 0 0 0
		CHANNELS 3 Zrotation Yrotation Xrotation
		JOINT Spine
		{
			OFFSET -0.02096 2.02288 -0.14752
			CHANNELS 3 Zrotation Yrotation Xrotation
			JOINT Spine1
			{
				OFFSET 0.03477 2.03136 -0.02358
				CHANNELS 3 Zrotation Yrotation Xrotation
				JOINT Neck
				{
					OFFSET 0 0 0
					CHANNELS 3 Zrotation Yrotation Xrotation
					JOINT Neck1
					{
						OFFSET 0.00174 1.74359 0.19336
						CHANNELS 3 Zrotation Yrotation Xrotation
						JOINT Head
						{
							OFFSET -0.03054 1.76140 -0.17751
							CHANNELS 3 Zrotation Yrotation Xrotation
							End Site
							{
								OFFSET -0.00863 1.77239 -0.08120
							}
						}
					}
				}
				JOINT LeftShoulder
				{
					OFFSET 0 0 0
					CHANNELS 3 Zrotation Yrotation Xrotation
					JOINT LeftArm
					{
						OFFSET 3.68685 1.32687 -0.67367
						CHANNELS 3 Zrotation Yrotation Xrotation
						JOINT LeftForeArm
						{
							OFFSET 4.76468 -0.00000 -0.00000
							CHANNELS 3 Zrotation Yrotation Xrotation
							JOINT LeftHand
							{
								OFFSET 3.52712 -0.00000 -0.00000
								CHANNELS 3 Zrotation Yrotation Xrotation
								JOINT LeftFingerBase
								{
									OFFSET 0 0 0
									CHANNELS 3 Zrotation Yrotation Xrotation
									JOINT LeftHandIndex1
									{
										OFFSET 0.85956 -0.00000 -0.00000
										CHANNELS 3 Zrotation Yrotation Xrotation
										End Site
										{
											OFFSET 0.69300 -0.00000 -0.00000
										}
									}
								}
								JOINT LThumb
								{
									OFFSET 0 0 0
									CHANNELS 3 Zrotation Yrotation Xrotation
									End Site
									{
										OFFSET 0.70358 -0.00000 0.70358
									}
								}
							}
						}
					}
				}
				JOINT RightShoulder
				{
					OFFSET 0 0 0
					CHANNELS 3 Zrotation Yrotation Xrotation
					JOINT RightArm
					{
						OFFSET -3.31304 1.28268 -0.97357
						CHANNELS 3 Zrotation Yrotation Xrotation
						JOINT RightForeArm
						{
							OFFSET -4.90577 -0.00000 -0.00000
							CHANNELS 3 Zrotation Yrotation Xrotation
							JOINT RightHand
							{
								OFFSET -3.42692 -0.00000 0.00000
								CHANNELS 3 Zrotation Yrotation Xrotation
								JOINT RightFingerBase
								{
									OFFSET 0 0 0
									CHANNELS 3 Zrotation Yrotation Xrotation
									JOINT RightHandIndex1
									{
										OFFSET -0.74096 -0.00000 -0.00000
										CHANNELS 3 Zrotation Yrotation Xrotation
										End Site
										{
											OFFSET -0.59738 -0.00000 -0.00000
										}
									}
								}
								JOINT RThumb
								{
									OFFSET 0 0 0
									CHANNELS 3 Zrotation Yrotation Xrotation
									End Site
									{
										OFFSET -0.60650 -0.00000 0.60650
									}
								}
							}
						}
					}
				}
			}
		}
	}
}
MOTION
Frames: 10
Frame Time: .0083333
1.7945 17.8702 4.7524 0 0 0 0 0 0 -21 0 0 0 0 0 0 0 0 0 0 0 0 0 0 21 0 0 0 0 0 0 0 0 0 0 0 0 0 0 0 0 0 0 0 0 0 0 -16 0 0 21 0 0 11 0 0 0 -8 0 0 0 0 0 0 0 0 0 0 0 0 0 0 0 0 0 0 0 0 8 0 0 0 0 0 0 0 0 0 0 0 0 0 0 0 0 0
1.7945 17.8702 4.7524 -1.7489 -3.5645 0.9089 0.0000 0.0000 0.0000 -18.4578 0.9829 -0.7352 0.5075 4.5664 12.6758 0.6050 -2.6655 -14.0250 2.5340 -9.8995 -28.6518 0.0000 0.0000 0.0000 20.3502 2.8101 -2.3802 -0.8372 -5.8368 16.3117 -0.5050 -1.7636 -14.1799 -0.2359 -3.1258 8.6293 -2.9591 -1.1728 4.8320 2.5078 -1.6616 -0.5332 4.3820 -0.7567 -3.1032 -10.3246 -11.5758 -5.5025 9.4328 -15.3268 4.4866 3.5541 -7.4779 3.7461 0.0000 -0.0000 0.0000 -98.4032 3.0402 -0.7670 18.0722 -28.2495 -4.5833 -0.0000 -0.0000 6.2089 8.2811 -11.4967 -1.6617 -7.1250 0.0000 -0.0000 -13.1775 18.5298 8.5350 0.0000 -0.0000 0.0000 89.5507 4.9547 10.7566 -11.2204 18.6253 -1.8457 0.0000 0.0000 7.2223 -6.2822 -36.4268 3.7401 7.1250 -0.0000 -0.0000 33.9718 -63.3709 -16.0685
1.7978 17.8684 4.7553 -1.6569 -3.6093 0.9265 0.0000 0.0000 0.0000 -18.5784 1.0130 -0.7543 0.5077 4.5674 12.6786 0.6020 -2.6036 -13.9983 2.5544 -9.9362 -28.7705 0.0000 0.0000 0.0000 20.2167 2.7696 -2.4950 -0.8510 -5.8834 16.4464 -0.5285 -1.6227 -14.4156 -0.3235 -3.6559 10.1106 -3.0247 -1.1577 4.8737 2.4828 -1.6469 -0.5375 4.3935 -0.7477 -3.1315 -9.0745 -12.3204 -9.2506 6.2157 -16.0688 8.8483 2.0084 -7.8262 5.3903 -0.0000 0.0000 0.0000 -98.4888 3.0487 -0.9124 17.9845 -28.1373 -4.5419 -0.0000 -0.0000 6.3636 8.1491 -11.7531 -1.6707 -7.1250 0.0000 -0.0000 -13.2542 18.2838 8.6617 -0.0000 0.0000 0.0000 89.5209 4.9144 10.2779 -11.1070 18.4521 -1.8096 0.0000 0.0000 7.4765 -6.1156 -36.4815 3.6451 7.1250 -0.0000 -0.0000 34.2073 -63.3713 -16.1937
1.8004 17.8668 4.7583 -1.6533 -3.6582 0.9422 0.0000 0.0000 0.0000 -18.5925 1.0354 -0.8225 0.5165 4.6061 12.7885 0.6067 -2.5906 -14.0564 2.5904 -10.0004 -28.9780 0.0000 0.0000 0.0000 20.1984 2.7605 -2.5430 -0.8566 -5.9023 16.5013 -0.5495 -1.5219 -14.6362 -0.4385 -4.2491 11.7786 -3.0092 -1.1632 4.8863 2.4564 -1.6544 -0.5167 4.3576 -0.7526 -3.1175 -8.6323 -12.6291 -10.9143 5.1820 -16.3549 10.3786 1.4576 -7.9631 6.0390 0.0000 -0.0000 0.0000 -98.4804 3.0177 -1.0271 17.9168 -28.0506 -4.5101 -0.0000 -0.0000 6.3059 7.8857 -11.8753 -1.6326 -7.1250 0.0000 -0.0000 -13.4286 18.1755 8.8154 0.0000 -0.0000 0.0000 89.5625 4.9200 9.7284 -10.9581 18.2240 -1.7628 0.0000 0.0000 7.9952 -6.0287 -36.5369 3.5977 7.1250 -0.0000 -0.0000 34.3623 -63.3931 -16.2936
1.8014 17.8646 4.7606 -1.6850 -3.6859 0.9287 0.0000 0.0000 0.0000 -18.5558 1.0661 -0.8752 0.5271 4.6525 12.9201 0.6127 -2.6024 -14.1273 2.6019 -10.0209 -29.0445 0.0000 0.0000 0.0000 20.2369 2.7885 -2.5230 -0.8603 -5.9148 16.5374 -0.5688 -1.4459 -14.8427 -0.5839 -4.8927 13.6029 -2.9714 -1.1637 4.9238 2.4336 -1.6544 -0.4818 4.3127 -0.7543 -3.1041 -10.7347 -10.9633 -3.5962 10.7323 -14.5898 2.3148 4.2297 -7.1582 2.8475 -0.0000 0.0000 0.0000 -98.4553 2.9791 -1.1265 17.8236 -27.9307 -4.4663 -0.0000 -0.0000 6.3867 7.7065 -11.3551 -1.5262 -7.1250 0.0000 -0.0000 -13.5828 18.6930 8.7621 -0.0000 0.0000 0.0000 89.6152 4.9298 9.2355 -10.7743 17.9414 -1.7057 0.0000 0.0000 8.3121 -6.2651 -36.6329 3.7479 7.1250 -0.0000 -0.0000 34.2392 -63.5337 -16.3401
1.8033 17.8622 4.7618 -1.7796 -3.7090 0.9073 0.0000 0.0000 0.0000 -18.4569 1.0619 -0.9419 0.5426 4.7192 13.1094 0.6495 -2.7085 -14.5428 2.3933 -9.6413 -27.8226 0.0000 0.0000 0.0000 20.3377 2.8166 -2.4717 -0.8594 -5.9118 16.5286 -0.5839 -1.3714 -14.9948 -0.7287 -5.4543 15.2090 -2.8609 -1.1497 4.9878 2.4388 -1.6302 -0.4445 4.2550 -0.7445 -3.1065 -10.7222 -10.9221 -3.3370 10.8214 -14.5339 1.9008 4.2850 -7.1398 2.6825 0.0000 -0.0000 0.0000 -98.4556 2.9552 -1.1801 17.6808 -27.7465 -4.3996 -0.0000 -0.0000 6.5987 7.7811 -11.0705 -1.5030 -7.1250 0.0000 -0.0000 -13.5489 18.9689 8.6533 0.0000 -0.0000 0.0000 89.6199 4.9224 8.8760 -10.5536 17.6007 -1.6384 0.0000 0.0000 8.0976 -7.0107 -36.2597 4.1599 7.1250 -0.0000 -0.0000 33.0285 -63.4273 -15.6146
1.8060 17.8599 4.7618 -1.9767 -3.7312 0.8956 0.0000 0.0000 0.0000 -18.2546 0.9960 -1.0043 0.5587 4.7877 13.3041 0.7503 -3.0093 -15.6214 1.8053 -8.4482 -24.0838 0.0000 0.0000 0.0000 20.5486 2.8393 -2.4278 -0.8576 -5.9057 16.5111 -0.6193 -1.2272 -15.3597 -1.0715 -6.5804 18.4781 -2.6348 -1.1316 5.0522 2.4767 -1.5924 -0.4032 4.1648 -0.7298 -3.1085 -10.4835 -11.3412 -4.7107 10.1112 -15.0321 3.1832 3.8852 -7.3482 3.2641 0.0000 -0.0000 0.0000 -98.4458 2.9543 -1.1701 17.5337 -27.5559 -4.3313 -0.0000 -0.0000 6.7499 7.9427 -11.2795 -1.5632 -7.1250 0.0000 -0.0000 -13.4242 18.7575 8.6340 0.0000 -0.0000 0.0000 89.6010 4.8993 8.4223 -10.3162 17.2326 -1.5673 0.0000 0.0000 7.7425 -7.6977 -35.4398 4.4814 7.1250 -0.0000 -0.0000 31.3737 -62.9279 -14.3844
1.8074 17.8580 4.7606 -2.0957 -3.7529 0.8580 0.0000 0.0000 0.0000 -18.1320 0.8981 -1.0356 0.5745 4.8541 13.4928 0.7506 -2.9111 -15.6406 1.8553 -8.5579 -24.4220 0.0000 0.0000 0.0000 20.6919 2.9247 -2.3384 -0.8562 -5.9010 16.4973 -0.6192 -1.3004 -15.3913 -1.1184 -6.7181 18.8830 -2.5251 -1.1234 5.1205 2.4934 -1.5756 -0.3313 4.1194 -0.7249 -3.0763 -10.4620 -11.3594 -4.7560 10.2005 -15.0511 3.0588 3.9074 -7.3546 3.2417 -0.0000 0.0000 0.0000 -98.4161 2.8821 -1.2131 17.4108 -27.3962 -4.2747 -0.0000 -0.0000 6.8837 8.0207 -11.4960 -1.6086 -7.1250 0.0000 -0.0000 -13.3574 18.5417 8.6545 -0.0000 0.0000 0.0000 89.6135 4.9349 7.6332 -10.1356 16.9514 -1.5142 0.0000 0.0000 7.8800 -7.1888 -35.2664 4.1652 7.1250 -0.0000 -0.0000 31.7015 -62.6515 -14.3450
1.8100 17.8561 4.7603 -2.0891 -3.7695 0.8036 0.0000 0.0000 0.0000 -18.1500 0.8480 -1.0612 0.5901 4.9180 13.6749 0.7403 -2.8168 -15.5443 1.9625 -8.7875 -25.1330 0.0000 0.0000 0.0000 20.6860 2.9779 -2.2502 -0.8553 -5.8980 16.4888 -0.6180 -1.3577 -15.4030 -1.1325 -6.7589 19.0031 -2.5419 -1.1231 5.1821 2.4689 -1.5784 -0.2439 4.1036 -0.7287 -3.0205 -10.4355 -11.3568 -4.8101 10.3650 -15.0451 2.9084 3.9534 -7.3466 3.2164 -0.0000 -0.0000 0.0000 -98.3848 2.7756 -1.3065 17.3253 -27.2847 -4.2354 -0.0000 -0.0000 6.9978 8.0614 -11.7209 -1.6481 -7.1250 0.0000 -0.0000 -13.3164 18.3193 8.6940 -0.0000 -0.0000 0.0000 89.6647 4.9834 6.5964 -10.0312 16.7884 -1.4839 0.0000 0.0000 8.4347 -5.4848 -35.8667 3.2200 7.1250 -0.0000 -0.0000 34.1173 -62.7068 -15.6158
1.8135 17.8539 4.7613 -2.0990 -3.7659 0.7816 0.0000 0.0000 0.0000 -18.1530 0.8228 -1.1081 0.6036 4.9733 13.8323 0.7331 -2.7653 -15.4738 2.0296 -8.9276 -25.5690 0.0000 0.0000 0.0000 20.6797 2.9388 -2.2356 -0.8561 -5.9005 16.4960 -0.6167 -1.3605 -15.3882 -1.0912 -6.6387 18.6493 -2.5252 -1.1229 5.2263 2.4517 -1.5786 -0.1872 4.0764 -0.7307 -2.9876 -10.4317 -11.3529 -4.7850 10.5080 -15.0374 2.7062 4.0025 -7.3417 3.1625 0.0000 -0.0000 0.0000 -98.3626 2.7592 -1.3838 17.2865 -27.2339 -4.2176 -0.0000 -0.0000 7.1108 8.0690 -11.9639 -1.6833 -7.1250 0.0000 -0.0000 -13.2975 18.0805 8.7532 0.0000 -0.0000 0.0000 89.7244 4.9455 5.4780 -9.9688 16.6907 -1.4660 0.0000 0.0000 9.0700 -3.4430 -36.6562 2.0571 7.1250 -0.0000 -0.0000 37.0998 -62.8090 -17.2657
